<?xml version="1.0" encoding="iso-8859-1"?>
<!-- Generator: Adobe Illustrator 18.0.0, SVG Export Plug-In . SVG Version: 6.00 Build 0)  -->
<!DOCTYPE svg PUBLIC "-//W3C//DTD SVG 1.1//EN" "http://www.w3.org/Graphics/SVG/1.1/DTD/svg11.dtd">
<svg version="1.1" id="Capa_1" xmlns="http://www.w3.org/2000/svg" xmlns:xlink="http://www.w3.org/1999/xlink" x="0px" y="0px"
	 viewBox="0 0 297 297" style="enable-background:new 0 0 297 297;" xml:space="preserve">
<path d="M294.022,163.025c-1.908-1.906-4.494-2.978-7.191-2.978c0,0,0,0-0.002,0l-8.412,0.002
	c10.531-19.093,15.892-38.284,15.892-57.211c0-43.374-35.288-78.662-78.663-78.662c-29.336,0-54.969,16.139-68.491,40.007
	c-13.523-23.868-39.157-40.007-68.493-40.007C35.286,24.177,0,59.465,0,102.839c0,22.874,7.776,46.135,23.111,69.139
	c11.905,17.857,28.404,35.631,49.041,52.827c34.752,28.961,69.012,46.224,70.454,46.945c1.432,0.716,2.988,1.073,4.548,1.073
	c1.558,0,3.116-0.357,4.546-1.073c1.427-0.714,34.932-17.602,69.276-45.974l65.851-0.015c5.614-0.001,10.167-4.554,10.167-10.168
	L297,170.218C297,167.52,295.93,164.934,294.022,163.025z M147.15,251.146c-23.177-12.618-126.812-73.263-126.812-148.308
	c0-32.159,26.162-58.323,58.322-58.323c32.16,0,58.324,26.164,58.324,58.323c0,5.615,4.552,10.169,10.169,10.169
	c5.615,0,10.169-4.554,10.169-10.169c0-32.159,26.162-58.323,58.322-58.323c32.16,0,58.324,26.164,58.324,58.323
	c0,20.345-7.648,39.642-19.246,57.215l-76.762,0.016c-5.615,0.001-10.165,4.554-10.167,10.169l-0.004,45.378
	c0,2.697,1.072,5.285,2.979,7.191c1.906,1.907,4.492,2.979,7.19,2.979c0.002,0,0.002,0,0.002,0l9.504-0.002
	C169.86,238.334,154.477,247.15,147.15,251.146z M276.657,205.425l-88.526,0.02l0.003-25.039l88.527-0.018L276.657,205.425z"/>
<g>
</g>
<g>
</g>
<g>
</g>
<g>
</g>
<g>
</g>
<g>
</g>
<g>
</g>
<g>
</g>
<g>
</g>
<g>
</g>
<g>
</g>
<g>
</g>
<g>
</g>
<g>
</g>
<g>
</g>
</svg>
